<svg viewBox="0 0 21 19" fill="none" xmlns="http://www.w3.org/2000/svg">
    <path fill-rule="evenodd" clip-rule="evenodd" d="M1 16.2586H7.68L6.941 17.7536H12.335L11.579 16.2586H18.275V10.7586L16.69 12.3166L16.76 12.3876L18.175 10.9986V16.1586H11.417L12.173 17.6536H7.102L7.841 16.1586H1.1V3.55162H9.543L8.12 4.94962L8.189 5.02162L9.787 3.45162L1 3.45062V16.2586Z" fill="#646464" stroke="#646464" stroke-width="0.5"></path>
    <path fill-rule="evenodd" clip-rule="evenodd" d="M15.1921 1L15.2051 10.967H15.3041L15.2921 1H15.1921Z" fill="#646464" stroke="#646464" stroke-width="0.5"></path>
    <path fill-rule="evenodd" clip-rule="evenodd" d="M15.2191 10.9315L15.2891 11.0025L20.4811 5.86949L20.4111 5.79749L15.2191 10.9315Z" fill="#646464" stroke="#646464" stroke-width="0.5"></path>
    <path fill-rule="evenodd" clip-rule="evenodd" d="M15.2181 11.0022L10.0751 5.66821L10.1481 5.59821L15.2901 10.9322L15.2181 11.0022Z" fill="#646464" stroke="#646464" stroke-width="0.5"></path>
</svg>