<svg viewBox="0 0 19 26" fill="none" xmlns="http://www.w3.org/2000/svg">
    <path fill-rule="evenodd" clip-rule="evenodd" d="M17.7943 11.1404L16.0111 12.3844V18.8118H8.58426V14.6701L1.19946 19.7546L4.88106 22.2892L8.58426 24.8273V20.6963H17.9023V11.1035L17.7943 11.1404ZM16.1311 18.932V12.4451L17.7823 11.2915V20.5773H8.46426V24.6011L4.94826 22.1904L1.41066 19.7546L8.46426 14.8975V18.932H16.1311Z" fill="#646464"></path>
    <path d="M17.7943 11.1404L17.7134 10.9038L17.6801 10.9152L17.6512 10.9353L17.7943 11.1404ZM16.0111 12.3844L15.868 12.1794L15.7611 12.254V12.3844H16.0111ZM16.0111 18.8118V19.0618H16.2611V18.8118H16.0111ZM8.58426 18.8118H8.33426V19.0618H8.58426V18.8118ZM8.58426 14.6701H8.83426V14.1945L8.44249 14.4642L8.58426 14.6701ZM1.19946 19.7546L1.05769 19.5487L0.758602 19.7547L1.0577 19.9606L1.19946 19.7546ZM4.88106 22.2892L4.7393 22.4951L4.73973 22.4954L4.88106 22.2892ZM8.58426 24.8273L8.44293 25.0335L8.83426 25.3017V24.8273H8.58426ZM8.58426 20.6963V20.4463H8.33426V20.6963H8.58426ZM17.9023 20.6963V20.9463H18.1523V20.6963H17.9023ZM17.9023 11.1035H18.1523V10.7538L17.8214 10.8669L17.9023 11.1035ZM16.1311 18.932V19.182H16.3811V18.932H16.1311ZM16.1311 12.4451L15.9879 12.2402L15.8811 12.3148V12.4451H16.1311ZM17.7823 11.2915H18.0323V10.8119L17.6391 11.0866L17.7823 11.2915ZM17.7823 20.5773V20.8273H18.0323V20.5773H17.7823ZM8.46426 20.5773V20.3273H8.21426V20.5773H8.46426ZM8.46426 24.6011L8.32289 24.8073L8.71426 25.0756V24.6011H8.46426ZM4.94826 22.1904L4.80649 22.3963L4.80689 22.3965L4.94826 22.1904ZM1.41066 19.7546L1.26888 19.5487L0.969842 19.7547L1.26889 19.9606L1.41066 19.7546ZM8.46426 14.8975H8.71426V14.4218L8.32248 14.6916L8.46426 14.8975ZM8.46426 18.932H8.21426V19.182H8.46426V18.932ZM17.6512 10.9353L15.868 12.1794L16.1541 12.5894L17.9373 11.3454L17.6512 10.9353ZM15.7611 12.3844V18.8118H16.2611V12.3844H15.7611ZM16.0111 18.5618H8.58426V19.0618H16.0111V18.5618ZM8.83426 18.8118V14.6701H8.33426V18.8118H8.83426ZM8.44249 14.4642L1.05769 19.5487L1.34124 19.9606L8.72604 14.876L8.44249 14.4642ZM1.0577 19.9606L4.7393 22.4951L5.02283 22.0832L1.34123 19.5487L1.0577 19.9606ZM4.73973 22.4954L8.44293 25.0335L8.7256 24.621L5.0224 22.083L4.73973 22.4954ZM8.83426 24.8273V20.6963H8.33426V24.8273H8.83426ZM8.58426 20.9463H17.9023V20.4463H8.58426V20.9463ZM18.1523 20.6963V11.1035H17.6523V20.6963H18.1523ZM17.8214 10.8669L17.7134 10.9038L17.8751 11.3769L17.9831 11.34L17.8214 10.8669ZM16.3811 18.932V12.4451H15.8811V18.932H16.3811ZM16.2742 12.6501L17.9254 11.4965L17.6391 11.0866L15.9879 12.2402L16.2742 12.6501ZM17.5323 11.2915V20.5773H18.0323V11.2915H17.5323ZM17.7823 20.3273H8.46426V20.8273H17.7823V20.3273ZM8.21426 20.5773V24.6011H8.71426V20.5773H8.21426ZM8.60563 24.3949L5.08963 21.9842L4.80689 22.3965L8.32289 24.8073L8.60563 24.3949ZM5.09004 21.9844L1.55244 19.5487L1.26889 19.9606L4.80649 22.3963L5.09004 21.9844ZM1.55245 19.9605L8.60605 15.1034L8.32248 14.6916L1.26888 19.5487L1.55245 19.9605ZM8.21426 14.8975V18.932H8.71426V14.8975H8.21426ZM8.46426 19.182H16.1311V18.682H8.46426V19.182Z" fill="#646464"></path>
    <path fill-rule="evenodd" clip-rule="evenodd" d="M10.5625 1.00037V5.13132H1.24573V14.723L1.35373 14.6885L3.13693 13.4432V7.01584H10.5625V11.1563L17.9473 6.07418L14.2669 3.53965L10.5637 1.00037H10.5625ZM1.36573 5.24918H10.6825V1.22775L14.1973 3.63727L17.7373 6.07418L10.6825 10.9289V6.89679H3.01693V13.3813L1.36573 14.5373V5.24918Z" fill="#646464"></path>
    <path d="M10.5625 1.00037V0.750366H10.3125V1.00037H10.5625ZM10.5625 5.13132V5.38132H10.8125V5.13132H10.5625ZM1.24573 5.13132V4.88132H0.995728V5.13132H1.24573ZM1.24573 14.723H0.995728V15.0654L1.32185 14.9611L1.24573 14.723ZM1.35373 14.6885L1.42985 14.9266L1.46586 14.9151L1.49686 14.8934L1.35373 14.6885ZM3.13693 13.4432L3.28006 13.6482L3.38693 13.5736V13.4432H3.13693ZM3.13693 7.01584V6.76584H2.88693V7.01584H3.13693ZM10.5625 7.01584H10.8125V6.76584H10.5625V7.01584ZM10.5625 11.1563H10.3125V11.6318L10.7043 11.3623L10.5625 11.1563ZM17.9473 6.07418L18.0891 6.28012L18.3882 6.07425L18.0891 5.86828L17.9473 6.07418ZM14.2669 3.53965L14.4087 3.33375L14.4083 3.33347L14.2669 3.53965ZM10.5637 1.00037L10.7051 0.794183L10.6412 0.750366H10.5637V1.00037ZM1.36573 5.24918V4.99918H1.11573V5.24918H1.36573ZM10.6825 5.24918V5.49918H10.9325V5.24918H10.6825ZM10.6825 1.22775L10.8239 1.02155L10.4325 0.753258V1.22775H10.6825ZM14.1973 3.63727L14.3391 3.43135L14.3387 3.43107L14.1973 3.63727ZM17.7373 6.07418L17.879 6.28012L18.1783 6.07421L17.8791 5.86825L17.7373 6.07418ZM10.6825 10.9289H10.4325V11.4045L10.8243 11.1349L10.6825 10.9289ZM10.6825 6.89679H10.9325V6.64679H10.6825V6.89679ZM3.01693 6.89679V6.64679H2.76693V6.89679H3.01693ZM3.01693 13.3813L3.1603 13.5861L3.26693 13.5115V13.3813H3.01693ZM1.36573 14.5373H1.11573V15.0175L1.5091 14.7421L1.36573 14.5373ZM10.3125 1.00037V5.13132H10.8125V1.00037H10.3125ZM10.5625 4.88132H1.24573V5.38132H10.5625V4.88132ZM0.995728 5.13132V14.723H1.49573V5.13132H0.995728ZM1.32185 14.9611L1.42985 14.9266L1.27761 14.4503L1.16961 14.4849L1.32185 14.9611ZM1.49686 14.8934L3.28006 13.6482L2.99379 13.2383L1.21059 14.4835L1.49686 14.8934ZM3.38693 13.4432V7.01584H2.88693V13.4432H3.38693ZM3.13693 7.26584H10.5625V6.76584H3.13693V7.26584ZM10.3125 7.01584V11.1563H10.8125V7.01584H10.3125ZM10.7043 11.3623L18.0891 6.28012L17.8056 5.86823L10.4208 10.9504L10.7043 11.3623ZM18.0891 5.86828L14.4087 3.33375L14.1251 3.74555L17.8055 6.28008L18.0891 5.86828ZM14.4083 3.33347L10.7051 0.794183L10.4223 1.20655L14.1255 3.74584L14.4083 3.33347ZM10.5637 0.750366H10.5625V1.25037H10.5637V0.750366ZM1.36573 5.49918H10.6825V4.99918H1.36573V5.49918ZM10.9325 5.24918V1.22775H10.4325V5.24918H10.9325ZM10.5412 1.43395L14.056 3.84347L14.3387 3.43107L10.8239 1.02155L10.5412 1.43395ZM14.0556 3.8432L17.5956 6.2801L17.8791 5.86825L14.3391 3.43135L14.0556 3.8432ZM17.5956 5.86823L10.5408 10.723L10.8243 11.1349L17.879 6.28012L17.5956 5.86823ZM10.9325 10.9289V6.89679H10.4325V10.9289H10.9325ZM10.6825 6.64679H3.01693V7.14679H10.6825V6.64679ZM2.76693 6.89679V13.3813H3.26693V6.89679H2.76693ZM2.87355 13.1765L1.22235 14.3325L1.5091 14.7421L3.1603 13.5861L2.87355 13.1765ZM1.61573 14.5373V5.24918H1.11573V14.5373H1.61573Z" fill="#646464"></path>
</svg>