<svg viewBox="0 0 40 40" xmlns="http://www.w3.org/2000/svg" class="icon" data-v-42db8a8d=""><path d="M3.64587 5.17603H4.35587V34.6583L12.6815 20.0262C12.4062 19.7165 12.2384 19.3081 12.2384 18.8606C12.2384 17.8916 13.0239 17.106 13.9929 17.106C14.9619 17.106 15.7474 17.8916 15.7474 18.8606C15.7474 18.9263 15.7438 18.9913 15.7367 19.0553L23.9377 22.0961C24.2335 21.545 24.815 21.17 25.4847 21.17C25.7423 21.17 25.9873 21.2257 26.208 21.3256L34.9093 8.77206L31.5245 10.4883L31.2035 9.85504L36.3557 7.24263V12.7839H35.6457V8.95599L26.7822 21.7435C27.0658 22.055 27.2392 22.4695 27.2392 22.9245C27.2392 23.8935 26.4537 24.679 25.4847 24.679C24.5157 24.679 23.7302 23.8935 23.7302 22.9245C23.7302 22.8754 23.7322 22.8268 23.7362 22.7786L15.5166 19.7309C15.2143 20.2589 14.6455 20.6151 13.9929 20.6151C13.7298 20.6151 13.4799 20.557 13.2556 20.453L4.61132 35.645H36.7844V36.355H3.64587V5.17603ZM13.9929 17.816C13.416 17.816 12.9484 18.2837 12.9484 18.8606C12.9484 19.1934 13.1036 19.4898 13.3471 19.6816C13.5249 19.8217 13.7487 19.9051 13.9929 19.9051C14.4595 19.9051 14.8556 19.5988 14.9892 19.1754C15.0204 19.0765 15.0374 18.9709 15.0374 18.8606C15.0374 18.2837 14.5698 17.816 13.9929 17.816ZM25.4847 21.88C25.0056 21.88 24.601 22.2029 24.4783 22.6436C24.4535 22.7325 24.4402 22.8267 24.4402 22.9245C24.4402 23.5014 24.9078 23.969 25.4847 23.969C26.0616 23.969 26.5292 23.5014 26.5292 22.9245C26.5292 22.5794 26.3622 22.2733 26.103 22.0826C25.9299 21.9551 25.7166 21.88 25.4847 21.88Z"></path></svg>